<svg xmlns="http://www.w3.org/2000/svg" width="149" height="149" viewBox="0 0 39.423 39.423"><path d="M4.022 0l35.4 35.4V23.9L15.523 0h-11.5z" fill="#fc0"/><path d="M14.023 0l25.4 25.4v-.875L14.898 0h-.875zM4.522 0l34.9 34.9v-.874L5.398 0h-.875z" fill="#fff400"/><g aria-label="Fork me on GitHub" style="line-height:1.25;-inkscape-font-specification:'Open Sans'" font-weight="700" font-size="10.667" font-family="Open Sans Condensed" letter-spacing="0" word-spacing="0" fill="#162d50"><path d="M14.564 6.942l-.342-.343 1.854-1.854.831.83-.298.299-.488-.488-.515.514.455.456-.298.298-.455-.455zM17.022 7.982q-.347.347-.688.394-.34.046-.596-.21-.163-.163-.198-.376-.036-.213.063-.446.1-.235.324-.458.343-.344.682-.39.34-.049.599.21.25.25.199.595-.048.345-.385.68zm-.75-.751q-.221.22-.286.382-.064.16.042.267.203.203.65-.243.221-.222.281-.38.062-.16-.043-.264-.107-.107-.265-.045-.157.061-.38.283zM18.593 8.09q.062.063.102.142l-.366.288q-.023-.049-.08-.106-.123-.123-.287-.091-.162.03-.347.216l-.727.726-.337-.337 1.413-1.413.277.278-.182.259.011.011q.19-.077.312-.069.123.01.21.097zM18.522 9.377l.253-.084.763-.204.357.358-.937.222-.452 1.215-.353-.354.342-.852-.251-.013-.478.478-.338-.337 1.974-1.974.337.338-.93.93-.298.267zM20.698 13.075l.842-.842q.311-.31.158-.464-.112-.112-.272-.048-.158.062-.403.307l-.686.686-.34-.34.842-.842q.31-.31.155-.467-.11-.109-.27-.048-.16.06-.413.315l-.678.678-.338-.337 1.413-1.413.268.267-.14.222.02.022q.16-.057.296-.02.14.039.24.14.259.258.1.589l.013.013q.352-.137.59.101.189.188.153.416-.034.23-.288.483l-.922.922zM21.805 14.233q-.265-.265-.23-.606.036-.341.381-.686.35-.35.685-.408.335-.059.582.189.231.23.196.532-.035.3-.338.604l-.18.18-.678-.678q-.186.192-.205.359-.017.164.112.294.165.165.44.234l-.278.278q-.26-.065-.487-.292zm1.156-1.254q-.072-.072-.197-.042-.123.03-.291.183l.342.342q.152-.157.188-.281.035-.125-.042-.202zM24.906 15.866q-.347.347-.688.394-.34.046-.596-.21-.163-.163-.198-.376-.036-.213.063-.446.1-.235.324-.458.343-.344.682-.39.34-.049.599.21.25.25.199.595-.048.345-.385.68zm-.75-.751q-.221.22-.286.382-.064.16.042.267.203.203.65-.243.221-.222.281-.38.062-.16-.043-.264-.107-.107-.265-.045-.157.061-.38.283zM25.139 17.516l.842-.842q.153-.154.195-.27.042-.115-.04-.197-.11-.11-.27-.05-.158.056-.415.314l-.679.678-.337-.337 1.413-1.413.267.268-.14.222.02.021q.144-.052.284-.021.14.029.255.143.193.193.156.42-.036.228-.29.482l-.922.922zM28.008 18.328l.566.567-.95.95q-.344-.137-.616-.409-.323-.323-.252-.744.072-.42.535-.883.446-.447.898-.5.453-.052.812.307.222.222.31.538l-.392.172q-.065-.248-.202-.385-.197-.197-.489-.136-.289.061-.592.364-.312.312-.396.56-.082.25.076.41.084.083.192.148l.425-.425-.23-.23zM28.148 20.526l-.337-.338 1.413-1.413.337.338zm1.431-2.134q.084-.083.18-.083.099 0 .187.087.082.083.082.182.001.097-.082.18-.087.087-.186.085-.097-.004-.177-.084-.084-.084-.088-.181-.002-.1.084-.186zM29.188 21.046q.071.07.19.118l-.264.263q-.14-.025-.305-.19-.184-.184-.163-.382.021-.199.24-.418l.732-.732-.137-.137.151-.15.298.054.386-.213.216.215-.305.305.256.256-.267.267-.256-.256-.744.744q-.142.142-.028.256zM30.445 22.823l-.345-.345.813-.813-.455-.456-.813.813-.345-.345 1.854-1.854.345.345-.737.737.456.455.737-.737.345.345zM31.514 23.892l.14-.223-.018-.018q-.143.05-.286.018-.141-.032-.253-.144-.19-.19-.158-.417.031-.227.289-.484l.922-.923.341.342-.84.84q-.156.155-.197.27-.042.116.04.199.11.109.268.049.16-.058.417-.316l.677-.677.342.341-1.413 1.413zM34.148 23.646q.192.193.111.494-.081.302-.429.65-.35.351-.654.431-.302.081-.498-.115-.096-.095-.129-.21-.03-.114.01-.282l-.022-.022-.218.104-.249-.249 1.974-1.973.337.337-.462.462q-.029.03-.062.06t-.238.205l.017.018q.18-.055.298-.03.12.026.214.12zm-.404.17q-.096-.097-.23-.05-.131.048-.36.273l-.035.034q-.246.246-.303.39-.056.144.043.243.183.183.632-.266.438-.44.253-.624z" style="-inkscape-font-specification:'Open Sans Condensed, Bold'"/></g></svg>