<svg xmlns="http://www.w3.org/2000/svg" width="24" height="24">
  <path d="M4.91 5.666a.958.958 0 0 0-.626.259 1.45 1.45 0 0 0-.309.442c-.155.318-.268.704-.393 1.225-.251 1.049-.471 2.687-.698 4.005a2.176 2.176 0 0 0-.108-.381.844.844 0 0 0-.139-.243.712.712 0 0 0-.545-.267h-.768l-.005 1.252s.212-.011.33 0c.038.2.08.463.125.75.05.32.103.645.179.932.038.144.076.275.156.425.04.075.09.158.19.25a.762.762 0 0 0 .49.199c.307.004.612-.202.753-.397.141-.195.206-.383.267-.593.123-.42.206-.943.323-1.617.238-1.372.473-3.085.696-4.017.032-.131.052-.154.082-.262.03.108.05.131.081.262.224.932.458 2.645.696 4.017.232 1.332.456 3.024.713 4.096.125.521.238.907.393 1.224.077.16.165.306.31.443a.957.957 0 0 0 .624.258.958.958 0 0 0 .626-.258 1.45 1.45 0 0 0 .309-.443c.155-.317.268-.703.393-1.224.257-1.072.48-2.762.711-4.093.238-1.371.472-3.082.695-4.014.032-.13.052-.154.082-.262.03.108.05.131.081.262.224.932.458 2.645.697 4.017.23 1.332.455 3.024.712 4.096.125.521.238.907.393 1.224.078.16.165.306.31.443a.958.958 0 0 0 .625.258c.243 0 .48-.121.625-.258.145-.137.232-.284.309-.443.155-.317.268-.703.393-1.224.257-1.072.481-2.764.713-4.096.014-.083.024-.115.038-.194.02.076.037.15.07.23a.813.813 0 0 0 .124.22.673.673 0 0 0 .545.275h1.381v2.514l5.457-3.155-.512-.295-4.945-2.86v2.515h-.939a31.237 31.237 0 0 1-.124-.613 8.65 8.65 0 0 0-.195-.84 1.76 1.76 0 0 0-.16-.389.854.854 0 0 0-.186-.232.75.75 0 0 0-.481-.185c-.385 0-.646.28-.763.478a2.383 2.383 0 0 0-.238.617c-.122.45-.217 1.02-.335 1.695-.238 1.372-.473 3.084-.696 4.016-.031.132-.051.154-.081.263-.03-.109-.05-.132-.082-.263-.223-.932-.458-2.644-.696-4.016-.231-1.333-.456-3.024-.713-4.096-.125-.522-.238-.908-.393-1.225a1.448 1.448 0 0 0-.309-.442.958.958 0 0 0-.625-.259.958.958 0 0 0-.625.259 1.45 1.45 0 0 0-.31.442c-.154.318-.268.704-.392 1.225-.257 1.071-.481 2.762-.712 4.093-.238 1.371-.472 3.082-.695 4.013-.032.132-.051.155-.082.263-.03-.108-.05-.131-.081-.263-.224-.932-.458-2.644-.696-4.016-.232-1.333-.456-3.024-.713-4.096-.125-.521-.238-.908-.393-1.225a1.449 1.449 0 0 0-.31-.442.958.958 0 0 0-.624-.259z"/>
</svg>