<?xml version="1.0" encoding="UTF-8" standalone="no"?>
<!-- Created with Inkscape (http://www.inkscape.org/) -->

<svg
   xmlns:dc="http://purl.org/dc/elements/1.1/"
   xmlns:cc="http://creativecommons.org/ns#"
   xmlns:rdf="http://www.w3.org/1999/02/22-rdf-syntax-ns#"
   xmlns:svg="http://www.w3.org/2000/svg"
   xmlns="http://www.w3.org/2000/svg"
   xmlns:sodipodi="http://sodipodi.sourceforge.net/DTD/sodipodi-0.dtd"
   xmlns:inkscape="http://www.inkscape.org/namespaces/inkscape"
   width="200mm"
   height="200mm"
   viewBox="0 0 200 200"
   version="1.1"
   id="svg8"
   sodipodi:docname="icon.svg"
   inkscape:export-filename="./icon-192.png"
   inkscape:export-xdpi="24.379999"
   inkscape:export-ydpi="24.379999"
   inkscape:version="0.92.3 (2405546, 2018-03-11)">
  <defs
     id="defs2">
    <marker
       inkscape:stockid="TriangleOutM"
       orient="auto"
       refY="0.0"
       refX="0.0"
       id="TriangleOutM"
       style="overflow:visible"
       inkscape:isstock="true">
      <path
         id="path984"
         d="M 5.77,0.0 L -2.88,5.0 L -2.88,-5.0 L 5.77,0.0 z "
         style="fill-rule:evenodd;stroke:#ffcc00;stroke-width:1pt;stroke-opacity:1;fill:#ffcc00;fill-opacity:1"
         transform="scale(0.4)" />
    </marker>
    <marker
       inkscape:stockid="Arrow2Lend"
       orient="auto"
       refY="0.0"
       refX="0.0"
       id="marker3617"
       style="overflow:visible;"
       inkscape:isstock="true">
      <path
         id="path3615"
         style="fill-rule:evenodd;stroke-width:0.625;stroke-linejoin:round;stroke:#000000;stroke-opacity:1;fill:#000000;fill-opacity:1"
         d="M 8.7185878,4.0337352 L -2.2072895,0.016013256 L 8.7185884,-4.0017078 C 6.9730900,-1.6296469 6.9831476,1.6157441 8.7185878,4.0337352 z "
         transform="scale(1.1) rotate(180) translate(1,0)" />
    </marker>
    <marker
       inkscape:stockid="Arrow1Mend"
       orient="auto"
       refY="0"
       refX="0"
       id="Arrow1Mend"
       style="overflow:visible"
       inkscape:isstock="true">
      <path
         id="path848"
         d="M 0,0 5,-5 -12.5,0 5,5 Z"
         style="fill:#000000;fill-opacity:1;fill-rule:evenodd;stroke:#000000;stroke-width:1.00000003pt;stroke-opacity:1"
         transform="matrix(-0.4,0,0,-0.4,-4,0)"
         inkscape:connector-curvature="0" />
    </marker>
    <marker
       inkscape:stockid="Arrow2Lend"
       orient="auto"
       refY="0"
       refX="0"
       id="Arrow2Lend"
       style="overflow:visible"
       inkscape:isstock="true">
      <path
         id="path860"
         style="fill:#000000;fill-opacity:1;fill-rule:evenodd;stroke:#000000;stroke-width:0.625;stroke-linejoin:round;stroke-opacity:1"
         d="M 8.7185878,4.0337352 -2.2072895,0.01601326 8.7185884,-4.0017078 c -1.7454984,2.3720609 -1.7354408,5.6174519 -6e-7,8.035443 z"
         transform="matrix(-1.1,0,0,-1.1,-1.1,0)"
         inkscape:connector-curvature="0" />
    </marker>
  </defs>
  <sodipodi:namedview
     id="base"
     pagecolor="#ffffff"
     bordercolor="#666666"
     borderopacity="1.0"
     inkscape:pageopacity="0.0"
     inkscape:pageshadow="2"
     inkscape:zoom="0.73049944"
     inkscape:cx="392.13378"
     inkscape:cy="393.57504"
     inkscape:document-units="mm"
     inkscape:current-layer="layer1"
     showgrid="false"
     inkscape:window-width="1853"
     inkscape:window-height="1025"
     inkscape:window-x="67"
     inkscape:window-y="27"
     inkscape:window-maximized="1" />
  <metadata
     id="metadata5">
    <rdf:RDF>
      <cc:Work
         rdf:about="">
        <dc:format>image/svg+xml</dc:format>
        <dc:type
           rdf:resource="http://purl.org/dc/dcmitype/StillImage" />
        <dc:title></dc:title>
      </cc:Work>
    </rdf:RDF>
  </metadata>
  <g
     inkscape:label="Layer 1"
     inkscape:groupmode="layer"
     id="layer1"
     transform="translate(0,-97)">
    <rect
       style="opacity:1;vector-effect:none;fill:#00002b;fill-opacity:1;stroke:none;stroke-width:10;stroke-linecap:butt;stroke-linejoin:round;stroke-miterlimit:4;stroke-dasharray:none;stroke-dashoffset:0;stroke-opacity:1"
       id="rect4005"
       width="200"
       height="200"
       x="0"
       y="96.7061" />
    <path
       style="fill:none;stroke:#ffcc00;stroke-width:10.90808678;stroke-linecap:butt;stroke-linejoin:miter;stroke-miterlimit:4;stroke-dasharray:none;stroke-opacity:1;marker-end:url(#TriangleOutM)"
       d="m 8.7817316,194.9467 c 0,0 3.8041584,0.4075 5.9974384,0.4075 2.193282,0 2.966801,21.4729 5.99744,21.51091 3.030638,0.0381 3.998293,-6.16349 5.997439,-17.67536 1.999145,-11.51192 3.952598,-26.00552 5.997439,-34.53574 2.044841,-8.53021 3.804158,-12.20973 5.997441,-12.20973 2.193283,0 3.9526,3.67952 5.997441,12.20973 2.044841,8.53022 3.998287,23.02382 5.997436,34.53574 1.999147,11.51187 3.952601,26.00546 5.997441,34.53565 2.044841,8.53022 3.804158,12.20979 5.997441,12.20976 2.193283,0 3.954134,-3.68248 5.997436,-12.20976 2.043302,-8.52723 3.992386,-23.00687 5.988582,-34.5103 1.996188,-11.50346 3.945269,-25.98309 5.988573,-34.51033 2.043303,-8.52725 3.804161,-12.20976 5.997447,-12.20976 2.193273,0 3.952591,3.67956 5.997436,12.20976 2.044833,8.5302 3.998286,23.02381 5.997447,34.53568 1.999141,11.5119 3.952601,26.0055 5.997451,34.53571 2.04482,8.53022 3.80414,12.20974 5.99742,12.20977 2.19328,0 3.95259,-3.67955 5.99744,-12.20977 2.04484,-8.53021 3.99829,-23.0238 5.99744,-34.53571 1.99916,-11.51187 3.30446,-19.23414 5.99744,-19.23414 2.69298,-2e-5 4.23331,19.23414 5.99745,19.23414 h 5.99741 21.23041"
       inkscape:connector-curvature="0"
       sodipodi:nodetypes="czzzzzzzzzzzzzzzzzzzzscc" />
  </g>
</svg>
